<svg viewBox="0 0 120 120" xmlns="http://www.w3.org/2000/svg" role="img" aria-label="AI and semantic search">
  <defs>
    <linearGradient id="aiGradient" x1="0" y1="0" x2="1" y2="1">
      <stop offset="0%" stop-color="#8b1e2d" />
      <stop offset="100%" stop-color="#b87333" />
    </linearGradient>
  </defs>
  <rect x="8" y="8" width="104" height="104" rx="24" fill="#020617" />
  <path d="M42 38c8-10 28-10 36 4 4 7 4 16 0 24-4 8-10 12-16 14-6 2-12 0-16-4-5-4-8-10-8-18s2-14 4-20z"
        fill="none" stroke="url(#aiGradient)" stroke-width="2.4" />
  <circle cx="46" cy="44" r="3" fill="#facc15" />
  <circle cx="70" cy="42" r="3" fill="#facc15" />
  <circle cx="74" cy="60" r="3" fill="#facc15" />
  <circle cx="54" cy="70" r="3" fill="#facc15" />
  <circle cx="60" cy="52" r="3" fill="#facc15" />
  <line x1="46" y1="44" x2="60" y2="52" stroke="#facc15" stroke-width="1.5" />
  <line x1="60" y1="52" x2="70" y2="42" stroke="#facc15" stroke-width="1.5" />
  <line x1="60" y1="52" x2="74" y2="60" stroke="#facc15" stroke-width="1.5" />
  <line x1="60" y1="52" x2="54" y2="70" stroke="#facc15" stroke-width="1.5" />
  <rect x="30" y="80" width="60" height="10" rx="5" fill="#0f172a" />
  <rect x="32" y="82" width="18" height="6" rx="3" fill="#22c55e" />
  <rect x="52" y="82" width="18" height="6" rx="3" fill="#e5e7eb" />
  <rect x="72" y="82" width="16" height="6" rx="3" fill="#4b5563" />
</svg>


